PathFileType	4	(X/Y/Z)	S01_0004_Gait_markers.trc
DataRate	CameraRate	NumFrames	NumMarkers	Units	OrigDataRate	OrigDataStartFrame	OrigNumFrames
250.000000	250.000000	4	54	mm	250.000000	80	320
Frame#	Time	HEAD_ANT			R_HEAD			L_HEAD			C7			R_BACK			L_BACK			STERNUM			R_ACROMION			R_HUM_PROX			R_HUM_ANT			R_HUM_POST			R_ELBOW_LAT			R_ELBOW_MED			R_FOREARM			R_WIRST_LAT			R_WRITS_MED			R_HAND			L_ACROMION			L_HUM_PROX			L_HUM_ANT			L_HUM_POST			L_ELBOW_LAT			L_ELBOW_MED			L_FOREARM			L_WRIST_LAT			L_WIRST_MED			L_HAND			R_ILIAC			SACRUM			L_ILIAC			R_GTROCH			R_THIGH__1			R_THIGH_2			R_THIGH_3			R_THIGH_4			R_SHANK_1			R_SHANK_2			R_SHANK_3			R_SHANK_4			R_HEEL			R_FOOT_LAT			R_FOOT_MED			L_GTROCH			L_THIGH_1			L_THIGH_2			L_THIGH_3			L_THIGH_4			L_SHANK_1			L_SHANK_2			L_SHANK_3			L_SHANK_4			L_HEEL			L_FOOT_LAT			L_FOOT_MED			
		X1	Y1	Z1	X2	Y2	Z2	X3	Y3	Z3	X4	Y4	Z4	X5	Y5	Z5	X6	Y6	Z6	X7	Y7	Z7	X8	Y8	Z8	X9	Y9	Z9	X10	Y10	Z10	X11	Y11	Z11	X12	Y12	Z12	X13	Y13	Z13	X14	Y14	Z14	X15	Y15	Z15	X16	Y16	Z16	X17	Y17	Z17	X18	Y18	Z18	X19	Y19	Z19	X20	Y20	Z20	X21	Y21	Z21	X22	Y22	Z22	X23	Y23	Z23	X24	Y24	Z24	X25	Y25	Z25	X26	Y26	Z26	X27	Y27	Z27	X28	Y28	Z28	X29	Y29	Z29	X30	Y30	Z30	X31	Y31	Z31	X32	Y32	Z32	X33	Y33	Z33	X34	Y34	Z34	X35	Y35	Z35	X36	Y36	Z36	X37	Y37	Z37	X38	Y38	Z38	X39	Y39	Z39	X40	Y40	Z40	X41	Y41	Z41	X42	Y42	Z42	X43	Y43	Z43	X44	Y44	Z44	X45	Y45	Z45	X46	Y46	Z46	X47	Y47	Z47	X48	Y48	Z48	X49	Y49	Z49	X50	Y50	Z50	X51	Y51	Z51	X52	Y52	Z52	X53	Y53	Z53	X54	Y54	Z54	

81	0.32	595.4974365234375	301.2107849121094	1749.1591796875	536.9130859375	224.751953125	1697.541870117188	536.5570068359375	372.2739868164062	1703.143432617188	401.441162109375	303.2998046875	1527.505004882812	333.5732421875	240.2791900634766	1327.794311523438	331.2228088378906	380.60791015625	1334.94970703125	580.7380981445312	312.9498596191406	1369.443237304688	481.4309997558594	135.8313293457031	1473.339233398438	461.2431335449219	46.45573806762695	1309.927856445312	528.7578735351562	55.46804809570312	1228.854248046875	409.9217224121094	28.68099403381348	1222.259887695312	466.9345397949219	33.09963989257812	1119.375610351562	426.4725341796875	107.1176300048828	1116.713134765625	582.381103515625	64.40675354003906	947.0026245117188	615.9232177734375	116.5500869750977	886.2474365234375	562.3662109375	62.77205276489258	856.1665649414062	641.0078125	66.50521087646484	798.1446533203125	479.2953796386719	474.2973327636719	1492.991577148438	446.09423828125	575.1512451171875	1329.77734375	503.3463134765625	583.279541015625	1245.71923828125	380.1771240234375	595.9701538085938	1256.073852539062	432.8292236328125	612.0676879882812	1149.686157226562	387.0758972167969	552.5166625976562	1147.353637695312	529.3300170898438	610.7450561523438	967.3074951171875	562.0601196289062	563.6898803710938	901.1337890625	511.1071472167969	625.10400390625	887.2460327148438	580.236572265625	615.56005859375	821.642578125	497.4477844238281	147.8927612304688	1081.396850585938	359.1310729980469	310.702880859375	1053.308715820312	472.6931762695312	489.3265075683594	1080.134643554688	449.4536437988281	136.5792846679688	931.6541748046875	482.7608337402344	171.5668640136719	650.9874877929688	539.5159912109375	170.4959259033203	666.588134765625	540.3677978515625	211.0630493164062	566.4013061523438	477.17626953125	196.7737884521484	571.9146118164062	452.7677001953125	202.1223907470703	344.7094421386719	504.3306884765625	224.3381500244141	321.5075073242188	492.3973388671875	245.3165130615234	238.5336608886719	430.9215087890625	227.8225708007812	247.7474975585938	366.6395874023438	314.6242980957031	47.39544677734375	533.1181640625	236.2922058105469	19.05611991882324	585.7557983398438	341.3958740234375	29.59483337402344	444.0440368652344	498.5931396484375	963.5618896484375	608.3540649414062	516.54638671875	697.165771484375	551.3148193359375	530.2446899414062	705.17724609375	562.5985717773438	513.8618774414062	599.4616088867188	623.7853393554688	506.5822448730469	617.0181274414062	486.7764282226562	505.0157470703125	370.9790344238281	429.4279479980469	503.7297668457031	390.8421020507812	373.8667907714844	485.3853759765625	325.3201599121094	427.5270385742188	481.9108581542969	289.5094909667969	231.7694702148438	405.8063354492188	202.5412292480469	346.0947265625	481.1171875	71.73195648193359	393.6341552734375	392.4793090820312	67.96751403808594	
82	0.324	600.8182373046875	301.4920043945312	1749.562255859375	542.3756103515625	225.0778961181641	1697.940673828125	541.9094848632812	372.6849670410156	1703.423950195312	406.9174194335938	303.3050842285156	1527.800903320312	338.98583984375	240.5653076171875	1328.1396484375	336.2900085449219	381.1330261230469	1335.42529296875	585.9691772460938	313.0404968261719	1369.852172851562	486.9485168457031	135.9421081542969	1473.7216796875	467.0974731445312	46.36465835571289	1310.273193359375	534.75	55.50534439086914	1229.336059570312	415.8963317871094	29.06406211853027	1222.434814453125	473.5134582519531	33.37019729614258	1119.627319335938	433.06884765625	107.4987411499023	1116.967163085938	589.9409790039062	65.29116058349609	948.4041137695312	623.3118896484375	117.556022644043	887.4939575195312	569.9353637695312	63.71366882324219	857.0202026367188	648.8728637695312	67.48051452636719	799.1984252929688	484.545166015625	474.5465393066406	1493.195678710938	450.6910705566406	575.281494140625	1330.129028320312	508.0315551757812	583.6403198242188	1245.886474609375	384.4850463867188	596.1739501953125	1256.469360351562	439.2931823730469	611.3236083984375	1149.129272460938	391.2993774414062	552.8656005859375	1148.002075195312	532.9242553710938	611.1751708984375	967.44384765625	565.9187622070312	564.42041015625	901.3176879882812	514.6495971679688	625.4099731445312	887.4310913085938	583.7325439453125	616.2830200195312	821.7217407226562	502.7739868164062	148.0447082519531	1081.3193359375	364.1913146972656	311.1641845703125	1053.508544921875	477.6183166503906	489.4700012207031	1080.82763671875	454.0757141113281	136.8350677490234	931.8816528320312	485.1050415039062	171.4361267089844	651.3486938476562	542.184326171875	169.4813537597656	666.5200805664062	542.2820434570312	210.4715270996094	565.9786987304688	478.8046875	196.8951721191406	572.379638671875	453.4592895507812	202.1548156738281	344.9465026855469	504.9964294433594	224.30322265625	321.6019287109375	492.934326171875	245.2043762207031	238.7676696777344	431.4984130859375	227.8488311767578	247.8555908203125	366.8502197265625	315.019287109375	47.67020797729492	533.1033935546875	236.2661437988281	19.07583999633789	586.0492553710938	341.236328125	29.60014533996582	449.33056640625	498.886962890625	964.3662719726562	616.0822143554688	516.3866577148438	698.9750366210938	559.127685546875	530.3280029296875	706.4125366210938	571.326171875	513.74609375	600.8587036132812	631.9859008789062	506.2514343261719	618.6891479492188	498.1249694824219	505.9212341308594	370.6849060058594	439.9662475585938	503.7339477539062	389.9920043945312	385.9201354980469	485.7266845703125	323.17041015625	440.0997314453125	482.1737976074219	288.3093566894531	245.6304168701172	406.194091796875	197.5554046630859	363.2503967285156	481.8350830078125	70.12175750732422	410.6245727539062	393.40234375	66.60803985595703	
83	0.328	606.1807861328125	301.8316955566406	1749.8955078125	547.8762817382812	225.3605041503906	1698.255004882812	547.3230590820312	372.970947265625	1703.623657226562	412.1605834960938	303.6033020019531	1527.989868164062	344.4707641601562	240.3069458007812	1328.430786132812	341.5498657226562	381.2930603027344	1336.043090820312	591.1285400390625	312.948974609375	1370.217529296875	492.4864196777344	136.2039794921875	1474.068603515625	472.8796691894531	46.57346725463867	1310.524291992188	540.7207641601562	55.5464973449707	1229.76953125	421.8832092285156	29.29310035705566	1222.51318359375	479.3714294433594	33.5975227355957	1120.015380859375	439.2697448730469	107.5077896118164	1117.124145507812	596.9769897460938	66.14931488037109	949.2464599609375	630.924560546875	118.4242782592773	888.6508178710938	577.760498046875	64.74660491943359	857.7880859375	657.0083618164062	68.64887237548828	800.5581665039062	489.829345703125	474.8016662597656	1493.347290039062	455.1358337402344	575.5667724609375	1330.498168945312	512.2996215820312	584.2234497070312	1246.136596679688	389.0078735351562	596.0326538085938	1256.883178710938	441.289794921875	612.436279296875	1150.461303710938	395.4894714355469	552.9526977539062	1148.411376953125	536.7571411132812	611.7806396484375	967.5524291992188	569.68798828125	564.030029296875	901.253662109375	518.2313842773438	625.5968017578125	887.5466918945312	587.3463745117188	616.880615234375	821.751953125	505.2196044921875	147.4598236083984	1080.52783203125	369.2303161621094	311.0914916992188	1053.91455078125	482.649169921875	489.5989379882812	1081.2216796875	458.6687927246094	137.0538177490234	932.033935546875	487.4385681152344	171.6215057373047	651.554443359375	544.3705444335938	169.7904968261719	666.23486328125	544.165283203125	210.2050476074219	566.0635375976562	480.6229248046875	196.7311248779297	572.71435546875	454.1145935058594	202.1322479248047	345.1456298828125	505.6379089355469	224.1777954101562	321.7509765625	493.3987731933594	245.1843719482422	238.9002990722656	432.0252685546875	227.8329162597656	248.3780059814453	367.0642700195312	315.3746032714844	48.18749237060547	533.116455078125	236.3378143310547	19.04704666137695	586.3502807617188	341.0640258789062	29.59218215942383	454.747314453125	499.1455078125	965.1138916015625	623.734619140625	516.1865234375	700.4600219726562	566.4901123046875	530.5225830078125	707.4542846679688	579.4580688476562	513.6167602539062	601.8798828125	640.1801147460938	505.9786376953125	620.23828125	509.3671875	505.7556762695312	370.4202575683594	450.9668579101562	503.7171325683594	388.6246337890625	398.076904296875	485.9816284179688	320.98876953125	452.6822814941406	482.318359375	287.0792541503906	259.5889892578125	406.7148132324219	192.4613342285156	380.4241333007812	482.7278747558594	68.23685455322266	427.5907287597656	394.2790832519531	65.33538055419922	
84	0.332	611.6422119140625	301.8237609863281	1750.07861328125	553.1358032226562	225.6225128173828	1698.65478515625	552.7315063476562	373.3555297851562	1703.870971679688	417.557373046875	303.7228698730469	1528.26513671875	349.6792602539062	240.2567291259766	1328.715087890625	346.8126220703125	381.5948791503906	1336.437255859375	596.3795166015625	313.7666015625	1370.420532226562	498.0016174316406	136.4213256835938	1474.322387695312	478.6157836914062	46.66829681396484	1310.788696289062	546.694580078125	55.57313537597656	1230.209350585938	427.8560791015625	29.34310531616211	1222.615600585938	486.0574645996094	33.80392837524414	1120.249633789062	445.491943359375	107.9695816040039	1117.264892578125	604.181884765625	66.85981750488281	950.2346801757812	638.4173583984375	119.4097900390625	889.9987182617188	585.5020141601562	65.64035034179688	858.6014404296875	665.0646362304688	69.73950958251953	801.8046264648438	495.0208129882812	474.919189453125	1493.410522460938	459.8462524414062	575.5814208984375	1330.763305664062	516.7708740234375	584.5446166992188	1246.225708007812	393.3523864746094	596.284423828125	1257.3056640625	447.7715148925781	611.8292846679688	1149.7001953125	400.0252075195312	552.9247436523438	1148.668334960938	540.7581176757812	612.2008056640625	967.7869873046875	573.60986328125	565.4102172851562	901.5923461914062	521.8656616210938	625.9946899414062	887.68896484375	590.896484375	617.4462890625	821.7407836914062	510.6508178710938	147.5845947265625	1080.385498046875	374.1871948242188	311.0583801269531	1054.380493164062	487.6601867675781	489.6663513183594	1081.7314453125	463.2635498046875	137.3368530273438	932.18017578125	489.789306640625	171.2615661621094	651.943359375	546.7877807617188	169.8333282470703	666.0955200195312	546.0743408203125	209.084228515625	565.84716796875	482.5338439941406	195.9525756835938	573.1632690429688	454.7913208007812	202.1831665039062	345.3898315429688	506.2618103027344	223.9914855957031	321.8013610839844	493.9505310058594	245.232666015625	239.0468902587891	432.493896484375	227.983642578125	248.6386566162109	367.4722290039062	315.6223449707031	48.76962280273438	533.130859375	236.37548828125	19.03272438049316	586.6408081054688	340.8812255859375	29.66727638244629	460.2467041015625	499.4409484863281	965.7432861328125	631.3493041992188	516.0499267578125	701.8766479492188	573.8866577148438	530.6235961914062	708.4850463867188	587.8067626953125	513.485107421875	603.1265869140625	648.3218994140625	505.5897521972656	621.9389038085938	520.6785888671875	505.9888916015625	370.2433471679688	462.0179443359375	503.9521179199219	387.2961120605469	410.2635498046875	486.3024597167969	318.5523681640625	465.4780578613281	482.42578125	285.6206970214844	273.8192443847656	407.2528686523438	187.3421020507812	397.6301574707031	483.5006408691406	66.33440399169922	445.4671325683594	394.7524719238281	64.07585906982422	
